<?xml version="1.0" encoding="utf-8"?>
<!-- Generator: Adobe Illustrator 18.1.0, SVG Export Plug-In . SVG Version: 6.00 Build 0)  -->
<!DOCTYPE svg PUBLIC "-//W3C//DTD SVG 1.1//EN" "http://www.w3.org/Graphics/SVG/1.1/DTD/svg11.dtd">
<svg version="1.1" id="Laag_1" xmlns="http://www.w3.org/2000/svg" xmlns:xlink="http://www.w3.org/1999/xlink" x="0px" y="0px"
	 viewBox="0 0 1138 250" enable-background="new 0 0 1138 250" xml:space="preserve">
<path fill="#FFFFFF" d="M980.2,149.5c1.2,6,1.7,10.5,3.1,14.7c2.4,7.1,9.2,11.6,15.5,10.6c6.2-0.9,10.4-7.3,6.8-11.1
	c-6.4-7.1-5.8-15-3.1-22.7c7.5-21.6,15.6-43,23.5-64.4c4.7-13,9.6-26,14-39c0.5-1.4-1-4.8-2.2-5.1c-10-3.2-21.1,2.5-24.7,12.5
	c-8,22.6-16.3,45.2-23.6,68C985.4,125.2,983.1,138,980.2,149.5z"/>
<path fill="#FFFFFF" d="M430.2,106c-4.6-4.3-8.1-7.7-11.8-11c-3.2-2.8-6.5-2.7-9.8-0.1c-3.8,2.9-7.5,5.7-11.5,8.4
	c-9.2,6.2-6.5,6.7-14.2-0.9c-5.5-5.3-6.5-5.6-13.2-2.3c-1,0.5-2,1.1-3,1.7c-6.2,3.4-7.3,6-4.2,12.3c3.8,7.6,4,15.5,2,23.3
	c-2.6,10.4-5.9,20.6-9,30.8c-1.5,4.9,0.5,8.3,5.6,7.6c3.3-0.5,7.1-2.2,9.5-4.5c6.3-6.1,10.3-13.9,12.1-22.4
	c3.1-14,9.1-26.4,18.6-37.3c2.8-3.3,5-3.1,8.4-0.9c2.6,1.6,6.4,3,9,2.3C422.5,112,425.7,108.9,430.2,106z"/>
<path fill="#FFFFFF" d="M322.1,98c-9.5,0.4-15.7,5.3-20,12.1c-10.2,16.1-12.7,33.9-7.5,51.9c4.2,14.4,9.9,16.8,22.9,8.5
	c0.6-0.4,0.9-1,1.5-1.3c4.1-2.1,4.3-5.4,2.5-9c-5.3-10.3-4.4-21-1.9-31.7c1.9-8.3,4.3-16.5,6.3-24.8
	C326.9,100.1,325.9,97.5,322.1,98z"/>
<path fill="#FFFFFF" d="M328.8,46c-6.7,0-12.7,5.3-12.7,11.1c0,7.3,6.6,13.6,14.2,13.6c6.6,0,12.7-5.5,12.7-11.5
	C343,52.4,336.2,46,328.8,46z"/>
<path d="M711.1,161.9c-5.7,2.8-10.6,5.1-15.3,7.7c-15.5,8.4-30.5,5.7-44.9-2.6c-10.7-6.2-13.2-16.8-11.5-28.1
	c2.7-17.9,14.2-29,29.8-36.9c10.3-5.2,20.9-7.4,32.3-6.8c8.6,0.4,16.8,2.9,23.3,7.9c6.8,5.2,12.3,6.2,19.2,0.8
	c1.6-1.3,5.9-1.6,7-0.5c1.6,1.8,1.9,5.1,2.1,7.8c0.1,1.9-0.8,3.9-1.3,5.7c-7.5,25.1-15.3,50.2-27.7,73.5
	c-7.2,13.5-14.8,26.9-28.4,35.2c-12.3,7.6-26.1,6.2-32.3-8.3c-3.3-7.7-5.3-15.9-7.1-24.1c-1.2-5.5,2.1-10.3,6.5-11
	c9.1-1.4,13.6,1.6,15.3,8.9c1.5,6.8,3.5,13.5,6,20c1.6,4.2,4.4,4.4,6.9,0.6c8.9-13.7,16.1-28.2,20.1-44.1
	C711.4,166.1,711.1,164.8,711.1,161.9z M726.4,115.5c-0.9-0.4-1.1-0.5-1.2-0.5c-0.8,0.2-1.6,0.3-2.3,0.7c-5.5,2.8-11.1,2.5-16.9,0.9
	c-8.3-2.3-16.6-4.4-25-6.4c-5.3-1.3-9.6,0.1-12.3,5c-6.1,11-9,22.7-3.6,34.7c4.9,10.9,17.4,17.3,28.8,10.1
	c5.1-3.3,9.8-7.6,13.8-12.2C715.8,138.2,722.3,127.6,726.4,115.5z"/>
<path d="M849.3,109.6c3.9,0.5,7.3,0.9,10.7,1.5c2.7,0.5,4.7,1.7,3.3,5.1c-4.7,10.9-9.5,21.7-13.9,32.7c-2,5-3.2,10.3-4.3,15.6
	c-0.4,1.9,0.9,4.1,1,6.2c0.1,1.6,0.3,3.9-0.6,4.8c-5,4.9-21.9,5.3-23.8-5.5c-0.3-1.8,0.1-3.8,0.3-5.7c0.3-2.3,0.7-4.5,1-6.8
	c-2.4,0.6-4.9,0.9-7.2,1.8c-8.2,3.5-16.1,7.9-24.5,10.6c-12.1,3.9-23.7-0.2-27.8-9.2c-4.6-10.1-5.3-20.6,0-30.7
	c9.1-17.1,23.8-26.9,42.1-31.9c11.5-3.1,22.7-2.4,33.9,1.1C845.7,101,848.2,103.9,849.3,109.6z M836.6,116.5
	c-8.5-2.5-15.8-5.3-23.3-6.7c-5-0.9-10.7-0.9-15.4,0.8c-13,4.5-18.4,27.1-10.4,39.3c3.9,6,8.9,9.4,16,3.1c8-7.1,15.2-15,22.5-22.8
	C829.9,125.8,833.1,120.9,836.6,116.5z"/>
<path d="M516,71.7c-2.1,4.3-4.2,8.5-6.4,12.7c-3.8,7.3-4.4,14.2-0.1,21.8c5.5,10,9.1,20.9,9.5,32.6c0.4,10.3-5.9,17-12.9,23
	c-7.9,6.6-16.5,12.1-27,14.1c-11.1,2.1-20.5-2.1-29.1-8.3c-8.7-6.2-15-14.3-18.9-24.4c-1.8-4.6-0.1-8,2.6-11.4
	c0.9-1.2,2.1-2.1,3.2-3.2c4.9-4.8,6.9-5,12-0.3c3.1,2.9,5.2,4.1,8-0.5c7.8-12.9,17-25,23.8-38.4c7.2-14.4,19.7-17.2,33.4-18.9
	C514.4,70.6,515,71.2,516,71.7z M498.6,139.9c-1.5-4.5-3.4-11.2-5.8-17.6c-1.5-4-4.8-5.3-8.1-1.8c-7.1,7.4-14.2,14.8-20.8,22.6
	c-2,2.3-2.2,5.8,0.9,8.3c4.2,3.4,8.2,7.2,12.6,10.3c3.3,2.3,7.4,3.5,10.8,0.6C494.3,157.1,498.1,150.5,498.6,139.9z"/>
<path d="M906.4,132c-3.4,4.3-3.2,11.6,0.2,16.2c6.4,8.6,18,11.4,27.8,6.8c4.9-2.3,9.7-4.7,14.7-6.8c1.4-0.6,3.2-0.2,4.8-0.2
	c0,1.8,0.7,4-0.1,5.5c-4.9,10.2-12.7,17.3-23.6,20.6c-13.8,4.2-27.2,3.6-38.9-6.1c-8.3-6.9-12.2-16.3-13.3-26.8
	c-2.2-20.3,12.9-37.6,28.7-44.1c13.5-5.6,27.6-5.4,41.3-0.6c5.9,2.1,10.7,6.4,13.5,12.2c3.2,6.4,0.1,11.9-3.8,16.8
	c-6.6,8.4-16.2,10.6-26.1,11.5C922.9,137.5,914.3,136.4,906.4,132z M907.8,115.4c2.7,1,4.9,1.7,6.9,2.6c5.4,2.7,10.7,5.5,16,8.2
	c3.7,1.9,6.5,0.1,8.3-2.6c2-3,2.8-6.8-1.1-9.1c-5-2.9-10.1-5.5-15.4-7.7C914.6,103.8,908.5,107.8,907.8,115.4z"/>
<path d="M227.1,132.4c-5.3,13.4,4.6,23.4,17.1,24.4c4.8,0.4,9.9-1.6,14.6-3.3c4.1-1.4,7.9-4,12-5.7c1.4-0.6,3.9-0.4,4.7,0.5
	c0.8,0.9,0.9,3.4,0.2,4.7c-4.8,10-12.5,17.2-23.1,20.6c-12.2,3.9-24.2,3.7-35.8-3c-13-7.5-22.6-32.3-14-48.8
	c9.8-18.8,24.5-28.2,45.4-29c9.1-0.3,17.7,1.2,25.6,5.6c4.9,2.7,8.7,6.6,10,12.2c2,8.5-3.1,14.3-9,18.8c-9.8,7.3-21.5,8.3-33.3,6.8
	C236.8,135.7,232.2,133.8,227.1,132.4z M262.2,118.4c-0.4-0.6-0.9-2-1.9-3c-5.9-5.7-13.3-8.5-21.3-9.4c-4.6-0.5-9.3,3.8-9.7,8.1
	c-0.1,0.7,0.9,1.9,1.7,2.3c2.4,1.1,5.1,1.6,7.4,2.8c4.5,2.2,8.8,4.9,13.4,6.8C257.1,128.1,262,124.7,262.2,118.4z"/>
<path d="M571.3,131.9c-6.5,10,2,21,11.2,24.2c8.8,3,16.3-0.9,23.9-4.2c2.5-1.1,4.8-2.8,7.4-3.7c1.6-0.6,3.6-0.2,5.4-0.3
	c-0.1,1.9,0.3,4-0.4,5.6c-4.8,10.5-13,17.5-24,20.6c-15.8,4.5-30.6,3-42.2-10.3c-8.4-9.6-12.5-28.6-6.4-41.5
	c7.8-16.6,20.8-26.1,38.1-28.9c11.3-1.9,23.2-1.1,33.5,5.2c9.8,6,14,16.5,4.9,26.9c-7.1,8.1-16.6,10.5-26.7,11.2
	C587.5,137.4,579.1,136.4,571.3,131.9z M583.3,105.7c-4.7,0.6-8.4,2-9.9,6.2c-0.7,2-1.9,5.2,2.9,4.3c1.2-0.2,2.7,0.9,4,1.6
	c5.3,2.9,10.3,6.3,15.8,8.4c2.1,0.8,5.9-0.9,7.9-2.7c2.2-2,3.4-5.4,0.2-8.2C598,110.1,590.7,107.4,583.3,105.7z"/>
<path d="M1072.7,131.8c-4.9,4.8-2.7,13.2,2.1,18.5c6.4,7.1,16.7,9.3,28,3.8c3.8-1.9,7.6-4,11.5-5.6c1.8-0.7,3.9-0.5,5.9-0.7
	c-0.1,2.2,0.7,5-0.3,6.4c-3.8,5.1-7.6,10.7-12.7,14.4c-16.1,11.8-39.5,10.3-51.9-3.2c-14-15.2-15.7-38.2,0.4-55.7
	c12.6-13.8,28.3-18.2,46-16.5c8.8,0.9,17.5,3.3,23.6,10.7c5.3,6.4,4.8,13.8-0.5,20.7c-6.3,8.3-15.3,10.9-24.8,11.9
	C1090.6,137.5,1081.3,137.2,1072.7,131.8z M1074.1,115.6c3.1,1,5.3,1.5,7.3,2.4c5.4,2.6,10.6,5.5,16,8.1c3.5,1.7,6.1,0.4,8.1-2.8
	c2.2-3.5,2.2-6.9-1.5-8.9c-5.6-3.1-11.3-6.1-17.4-8.1C1080.5,104.2,1072.7,109.2,1074.1,115.6z"/>
<path d="M980.2,149.5c2.8-11.5,5.2-24.3,9.2-36.7c7.4-22.8,15.7-45.4,23.6-68c3.5-10,14.6-15.7,24.7-12.5c1.2,0.4,2.7,3.8,2.2,5.1
	c-4.4,13.1-9.2,26.1-14,39c-7.8,21.5-16,42.8-23.5,64.4c-2.7,7.7-3.3,15.6,3.1,22.7c3.5,3.9-0.7,10.2-6.8,11.1
	c-6.2,0.9-13.1-3.5-15.5-10.6C981.9,160,981.4,155.5,980.2,149.5z"/>
<path d="M430.2,106c-4.5,2.9-7.7,6-11.4,7c-2.6,0.7-6.4-0.7-9-2.3c-3.4-2.1-5.6-2.4-8.4,0.9c-9.4,10.9-15.5,23.2-18.6,37.3
	c-1.9,8.5-5.8,16.3-12.1,22.4c-2.4,2.3-6.1,4.1-9.5,4.5c-5.1,0.7-7.1-2.7-5.6-7.6c3.1-10.2,6.4-20.4,9-30.8c1.9-7.8,1.7-15.7-2-23.3
	c-3.1-6.3-2-8.9,4.2-12.3c1-0.6,2-1.2,3-1.7c6.8-3.2,7.8-3,13.2,2.3c7.7,7.5,5.1,7.1,14.2,0.9c3.9-2.7,7.7-5.5,11.5-8.4
	c3.4-2.6,6.7-2.7,9.8,0.1C422.1,98.3,425.6,101.7,430.2,106z"/>
<path d="M322.1,98c3.8-0.5,4.7,2.1,3.9,5.7c-2,8.3-4.4,16.5-6.3,24.8c-2.5,10.7-3.5,21.4,1.9,31.7c1.9,3.7,1.7,6.9-2.5,9
	c-0.6,0.3-1,0.9-1.5,1.3c-12.9,8.3-18.7,5.8-22.9-8.5c-5.2-18-2.7-35.8,7.5-51.9C306.5,103.3,312.6,98.4,322.1,98z"/>
<path d="M328.8,46c7.4-0.1,14.2,6.3,14.2,13.3c0,6-6.1,11.4-12.7,11.5c-7.6,0-14.2-6.2-14.2-13.6C316.1,51.4,322.1,46.1,328.8,46z"
	/>
<path d="M207,52c-4.2-18.5-17.3-28.5-33.7-34.7c-10.8-4-22.1-6.9-33.4-8.9c-10-1.8-20.4-2.4-30.6-2.1c-10.8,0.4-21.5,2.3-32.2,3.8
	C59.7,12.4,43,16.8,27.6,25.8C11.9,34.9,9.7,50.4,22.8,63C30.5,70.3,40,74.1,50,76.8c10.3,2.9,20.8,4.7,31-0.1
	c2.8-1.3,5.5-3.2,7.4-5.5c1.3-1.6,2.5-4.4-1.8-5.3C79,64.2,71.5,62,64,60c-7.7-2-15.7-3.5-21.7-9.3c-5.6-5.4-4.8-13.3,2.3-16.1
	c7.1-2.8,14.8-4.5,22.4-5.8c19.7-3.4,39.6-3.9,59.5-1.8c1.4,0.1,3.8,1.6,3.7,2.1c-0.3,1.7-1.2,4.3-2.4,4.7c-5.6,1.8-8,6.2-9.6,11
	C114,57.2,110,69.6,106.3,82c-1.2,3.9-2.7,5.7-6.8,4c-2.4-1-4.8-2.2-7.3-2.8c-1.6-0.4-4.1-0.5-5.1,0.4c-4.6,4.1-8.9,8.6-13.8,13.6
	c4.2,3,7.5,6,11.4,8c3.9,2,8.2,3.1,12.1,4.5c-2.7,13.6-6,27.1-8,40.8c-1.6,10.8-1.9,21.9,2.3,32.4c5.3,13.3,19.9,16.8,29.5,6.3
	c6.1-6.6,10.5-14.6,15.7-22.2c-6.9,0.4-12.1,0.7-17.3,0.9c-3.6,0.1-5.2-2.7-4.8-5.4c2.4-15.5,5.3-30.9,7.9-46.3
	c0.8-4.5,3.3-5.6,7.7-5.6c20,0,39.2-3.6,56.9-13.4C203.6,88.1,211.3,70.7,207,52z M170.8,87.4c-9.2,6.4-19.9,9.8-31.3,9.6
	c-2.6-0.1-5.2-0.8-8.8-1.3c0.6-3.6,0.6-7.2,1.7-10.3c6.3-16.6,13.1-33.1,19.5-49.7c1.4-3.7,3.5-4.4,6.8-2.6
	c12.5,6.8,21.8,16,23.6,31C183.5,74.4,178.3,82.1,170.8,87.4z"/>
</svg>
